<?xml version="1.0" encoding="utf-8" standalone="no"?>
<!DOCTYPE svg PUBLIC "-//W3C//DTD SVG 1.1//EN"
  "http://www.w3.org/Graphics/SVG/1.1/DTD/svg11.dtd">
<svg xmlns:xlink="http://www.w3.org/1999/xlink" width="208.226847pt" height="197.398125pt" viewBox="0 0 208.226847 197.398125" xmlns="http://www.w3.org/2000/svg" version="1.1">
 <metadata>
  <rdf:RDF xmlns:dc="http://purl.org/dc/elements/1.1/" xmlns:cc="http://creativecommons.org/ns#" xmlns:rdf="http://www.w3.org/1999/02/22-rdf-syntax-ns#">
   <cc:Work>
    <dc:type rdf:resource="http://purl.org/dc/dcmitype/StillImage"/>
    <dc:date>2024-08-16T12:28:46.398561</dc:date>
    <dc:format>image/svg+xml</dc:format>
    <dc:creator>
     <cc:Agent>
      <dc:title>Matplotlib v3.8.2, https://matplotlib.org/</dc:title>
     </cc:Agent>
    </dc:creator>
   </cc:Work>
  </rdf:RDF>
 </metadata>
 <defs>
  <style type="text/css">*{stroke-linejoin: round; stroke-linecap: butt}</style>
 </defs>
 <g id="figure_1">
  <g id="patch_1">
   <path d="M 0 197.398125 
L 208.226847 197.398125 
L 208.226847 0 
L 0 0 
z
" style="fill: #ffffff"/>
  </g>
  <g id="axes_1">
   <g id="patch_2">
    <path d="M 30.103125 173.52 
L 197.503125 173.52 
L 197.503125 7.2 
L 30.103125 7.2 
z
" style="fill: #ffffff"/>
   </g>
   <g id="matplotlib.axis_1">
    <g id="xtick_1">
     <g id="line2d_1">
      <path d="M 37.712216 173.52 
L 37.712216 7.2 
" clip-path="url(#p13bb953f38)" style="fill: none; stroke-dasharray: 2.96,1.28; stroke-dashoffset: 0; stroke: #b0b0b0; stroke-opacity: 0.7; stroke-width: 0.8"/>
     </g>
     <g id="line2d_2">
      <defs>
       <path id="mda1a75d367" d="M 0 0 
L 0 3.5 
" style="stroke: #000000; stroke-width: 0.8"/>
      </defs>
      <g>
       <use xlink:href="#mda1a75d367" x="37.712216" y="173.52" style="stroke: #000000; stroke-width: 0.8"/>
      </g>
     </g>
     <g id="text_1">
      <!-- 0.00 -->
      <g transform="translate(26.579403 188.118438) scale(0.1 -0.1)">
       <defs>
        <path id="DejaVuSans-30" d="M 2034 4250 
Q 1547 4250 1301 3770 
Q 1056 3291 1056 2328 
Q 1056 1369 1301 889 
Q 1547 409 2034 409 
Q 2525 409 2770 889 
Q 3016 1369 3016 2328 
Q 3016 3291 2770 3770 
Q 2525 4250 2034 4250 
z
M 2034 4750 
Q 2819 4750 3233 4129 
Q 3647 3509 3647 2328 
Q 3647 1150 3233 529 
Q 2819 -91 2034 -91 
Q 1250 -91 836 529 
Q 422 1150 422 2328 
Q 422 3509 836 4129 
Q 1250 4750 2034 4750 
z
" transform="scale(0.015625)"/>
        <path id="DejaVuSans-2e" d="M 684 794 
L 1344 794 
L 1344 0 
L 684 0 
L 684 794 
z
" transform="scale(0.015625)"/>
       </defs>
       <use xlink:href="#DejaVuSans-30"/>
       <use xlink:href="#DejaVuSans-2e" x="63.623047"/>
       <use xlink:href="#DejaVuSans-30" x="95.410156"/>
       <use xlink:href="#DejaVuSans-30" x="159.033203"/>
      </g>
     </g>
    </g>
    <g id="xtick_2">
     <g id="line2d_3">
      <path d="M 75.75767 173.52 
L 75.75767 7.2 
" clip-path="url(#p13bb953f38)" style="fill: none; stroke-dasharray: 2.96,1.28; stroke-dashoffset: 0; stroke: #b0b0b0; stroke-opacity: 0.7; stroke-width: 0.8"/>
     </g>
     <g id="line2d_4">
      <g>
       <use xlink:href="#mda1a75d367" x="75.75767" y="173.52" style="stroke: #000000; stroke-width: 0.8"/>
      </g>
     </g>
     <g id="text_2">
      <!-- 0.25 -->
      <g transform="translate(64.624858 188.118438) scale(0.1 -0.1)">
       <defs>
        <path id="DejaVuSans-32" d="M 1228 531 
L 3431 531 
L 3431 0 
L 469 0 
L 469 531 
Q 828 903 1448 1529 
Q 2069 2156 2228 2338 
Q 2531 2678 2651 2914 
Q 2772 3150 2772 3378 
Q 2772 3750 2511 3984 
Q 2250 4219 1831 4219 
Q 1534 4219 1204 4116 
Q 875 4013 500 3803 
L 500 4441 
Q 881 4594 1212 4672 
Q 1544 4750 1819 4750 
Q 2544 4750 2975 4387 
Q 3406 4025 3406 3419 
Q 3406 3131 3298 2873 
Q 3191 2616 2906 2266 
Q 2828 2175 2409 1742 
Q 1991 1309 1228 531 
z
" transform="scale(0.015625)"/>
        <path id="DejaVuSans-35" d="M 691 4666 
L 3169 4666 
L 3169 4134 
L 1269 4134 
L 1269 2991 
Q 1406 3038 1543 3061 
Q 1681 3084 1819 3084 
Q 2600 3084 3056 2656 
Q 3513 2228 3513 1497 
Q 3513 744 3044 326 
Q 2575 -91 1722 -91 
Q 1428 -91 1123 -41 
Q 819 9 494 109 
L 494 744 
Q 775 591 1075 516 
Q 1375 441 1709 441 
Q 2250 441 2565 725 
Q 2881 1009 2881 1497 
Q 2881 1984 2565 2268 
Q 2250 2553 1709 2553 
Q 1456 2553 1204 2497 
Q 953 2441 691 2322 
L 691 4666 
z
" transform="scale(0.015625)"/>
       </defs>
       <use xlink:href="#DejaVuSans-30"/>
       <use xlink:href="#DejaVuSans-2e" x="63.623047"/>
       <use xlink:href="#DejaVuSans-32" x="95.410156"/>
       <use xlink:href="#DejaVuSans-35" x="159.033203"/>
      </g>
     </g>
    </g>
    <g id="xtick_3">
     <g id="line2d_5">
      <path d="M 113.803125 173.52 
L 113.803125 7.2 
" clip-path="url(#p13bb953f38)" style="fill: none; stroke-dasharray: 2.96,1.28; stroke-dashoffset: 0; stroke: #b0b0b0; stroke-opacity: 0.7; stroke-width: 0.8"/>
     </g>
     <g id="line2d_6">
      <g>
       <use xlink:href="#mda1a75d367" x="113.803125" y="173.52" style="stroke: #000000; stroke-width: 0.8"/>
      </g>
     </g>
     <g id="text_3">
      <!-- 0.50 -->
      <g transform="translate(102.670313 188.118438) scale(0.1 -0.1)">
       <use xlink:href="#DejaVuSans-30"/>
       <use xlink:href="#DejaVuSans-2e" x="63.623047"/>
       <use xlink:href="#DejaVuSans-35" x="95.410156"/>
       <use xlink:href="#DejaVuSans-30" x="159.033203"/>
      </g>
     </g>
    </g>
    <g id="xtick_4">
     <g id="line2d_7">
      <path d="M 151.84858 173.52 
L 151.84858 7.2 
" clip-path="url(#p13bb953f38)" style="fill: none; stroke-dasharray: 2.96,1.28; stroke-dashoffset: 0; stroke: #b0b0b0; stroke-opacity: 0.7; stroke-width: 0.8"/>
     </g>
     <g id="line2d_8">
      <g>
       <use xlink:href="#mda1a75d367" x="151.84858" y="173.52" style="stroke: #000000; stroke-width: 0.8"/>
      </g>
     </g>
     <g id="text_4">
      <!-- 0.75 -->
      <g transform="translate(140.715767 188.118438) scale(0.1 -0.1)">
       <defs>
        <path id="DejaVuSans-37" d="M 525 4666 
L 3525 4666 
L 3525 4397 
L 1831 0 
L 1172 0 
L 2766 4134 
L 525 4134 
L 525 4666 
z
" transform="scale(0.015625)"/>
       </defs>
       <use xlink:href="#DejaVuSans-30"/>
       <use xlink:href="#DejaVuSans-2e" x="63.623047"/>
       <use xlink:href="#DejaVuSans-37" x="95.410156"/>
       <use xlink:href="#DejaVuSans-35" x="159.033203"/>
      </g>
     </g>
    </g>
    <g id="xtick_5">
     <g id="line2d_9">
      <path d="M 189.894034 173.52 
L 189.894034 7.2 
" clip-path="url(#p13bb953f38)" style="fill: none; stroke-dasharray: 2.96,1.28; stroke-dashoffset: 0; stroke: #b0b0b0; stroke-opacity: 0.7; stroke-width: 0.8"/>
     </g>
     <g id="line2d_10">
      <g>
       <use xlink:href="#mda1a75d367" x="189.894034" y="173.52" style="stroke: #000000; stroke-width: 0.8"/>
      </g>
     </g>
     <g id="text_5">
      <!-- 1.00 -->
      <g transform="translate(178.761222 188.118438) scale(0.1 -0.1)">
       <defs>
        <path id="DejaVuSans-31" d="M 794 531 
L 1825 531 
L 1825 4091 
L 703 3866 
L 703 4441 
L 1819 4666 
L 2450 4666 
L 2450 531 
L 3481 531 
L 3481 0 
L 794 0 
L 794 531 
z
" transform="scale(0.015625)"/>
       </defs>
       <use xlink:href="#DejaVuSans-31"/>
       <use xlink:href="#DejaVuSans-2e" x="63.623047"/>
       <use xlink:href="#DejaVuSans-30" x="95.410156"/>
       <use xlink:href="#DejaVuSans-30" x="159.033203"/>
      </g>
     </g>
    </g>
   </g>
   <g id="matplotlib.axis_2">
    <g id="ytick_1">
     <g id="line2d_11">
      <path d="M 30.103125 165.96 
L 197.503125 165.96 
" clip-path="url(#p13bb953f38)" style="fill: none; stroke-dasharray: 2.96,1.28; stroke-dashoffset: 0; stroke: #b0b0b0; stroke-opacity: 0.7; stroke-width: 0.8"/>
     </g>
     <g id="line2d_12">
      <defs>
       <path id="md5e2ab15e1" d="M 0 0 
L -3.5 0 
" style="stroke: #000000; stroke-width: 0.8"/>
      </defs>
      <g>
       <use xlink:href="#md5e2ab15e1" x="30.103125" y="165.96" style="stroke: #000000; stroke-width: 0.8"/>
      </g>
     </g>
     <g id="text_6">
      <!-- 0.0 -->
      <g transform="translate(7.2 169.759219) scale(0.1 -0.1)">
       <use xlink:href="#DejaVuSans-30"/>
       <use xlink:href="#DejaVuSans-2e" x="63.623047"/>
       <use xlink:href="#DejaVuSans-30" x="95.410156"/>
      </g>
     </g>
    </g>
    <g id="ytick_2">
     <g id="line2d_13">
      <path d="M 30.103125 135.72 
L 197.503125 135.72 
" clip-path="url(#p13bb953f38)" style="fill: none; stroke-dasharray: 2.96,1.28; stroke-dashoffset: 0; stroke: #b0b0b0; stroke-opacity: 0.7; stroke-width: 0.8"/>
     </g>
     <g id="line2d_14">
      <g>
       <use xlink:href="#md5e2ab15e1" x="30.103125" y="135.72" style="stroke: #000000; stroke-width: 0.8"/>
      </g>
     </g>
     <g id="text_7">
      <!-- 0.2 -->
      <g transform="translate(7.2 139.519219) scale(0.1 -0.1)">
       <use xlink:href="#DejaVuSans-30"/>
       <use xlink:href="#DejaVuSans-2e" x="63.623047"/>
       <use xlink:href="#DejaVuSans-32" x="95.410156"/>
      </g>
     </g>
    </g>
    <g id="ytick_3">
     <g id="line2d_15">
      <path d="M 30.103125 105.48 
L 197.503125 105.48 
" clip-path="url(#p13bb953f38)" style="fill: none; stroke-dasharray: 2.96,1.28; stroke-dashoffset: 0; stroke: #b0b0b0; stroke-opacity: 0.7; stroke-width: 0.8"/>
     </g>
     <g id="line2d_16">
      <g>
       <use xlink:href="#md5e2ab15e1" x="30.103125" y="105.48" style="stroke: #000000; stroke-width: 0.8"/>
      </g>
     </g>
     <g id="text_8">
      <!-- 0.4 -->
      <g transform="translate(7.2 109.279219) scale(0.1 -0.1)">
       <defs>
        <path id="DejaVuSans-34" d="M 2419 4116 
L 825 1625 
L 2419 1625 
L 2419 4116 
z
M 2253 4666 
L 3047 4666 
L 3047 1625 
L 3713 1625 
L 3713 1100 
L 3047 1100 
L 3047 0 
L 2419 0 
L 2419 1100 
L 313 1100 
L 313 1709 
L 2253 4666 
z
" transform="scale(0.015625)"/>
       </defs>
       <use xlink:href="#DejaVuSans-30"/>
       <use xlink:href="#DejaVuSans-2e" x="63.623047"/>
       <use xlink:href="#DejaVuSans-34" x="95.410156"/>
      </g>
     </g>
    </g>
    <g id="ytick_4">
     <g id="line2d_17">
      <path d="M 30.103125 75.24 
L 197.503125 75.24 
" clip-path="url(#p13bb953f38)" style="fill: none; stroke-dasharray: 2.96,1.28; stroke-dashoffset: 0; stroke: #b0b0b0; stroke-opacity: 0.7; stroke-width: 0.8"/>
     </g>
     <g id="line2d_18">
      <g>
       <use xlink:href="#md5e2ab15e1" x="30.103125" y="75.24" style="stroke: #000000; stroke-width: 0.8"/>
      </g>
     </g>
     <g id="text_9">
      <!-- 0.6 -->
      <g transform="translate(7.2 79.039219) scale(0.1 -0.1)">
       <defs>
        <path id="DejaVuSans-36" d="M 2113 2584 
Q 1688 2584 1439 2293 
Q 1191 2003 1191 1497 
Q 1191 994 1439 701 
Q 1688 409 2113 409 
Q 2538 409 2786 701 
Q 3034 994 3034 1497 
Q 3034 2003 2786 2293 
Q 2538 2584 2113 2584 
z
M 3366 4563 
L 3366 3988 
Q 3128 4100 2886 4159 
Q 2644 4219 2406 4219 
Q 1781 4219 1451 3797 
Q 1122 3375 1075 2522 
Q 1259 2794 1537 2939 
Q 1816 3084 2150 3084 
Q 2853 3084 3261 2657 
Q 3669 2231 3669 1497 
Q 3669 778 3244 343 
Q 2819 -91 2113 -91 
Q 1303 -91 875 529 
Q 447 1150 447 2328 
Q 447 3434 972 4092 
Q 1497 4750 2381 4750 
Q 2619 4750 2861 4703 
Q 3103 4656 3366 4563 
z
" transform="scale(0.015625)"/>
       </defs>
       <use xlink:href="#DejaVuSans-30"/>
       <use xlink:href="#DejaVuSans-2e" x="63.623047"/>
       <use xlink:href="#DejaVuSans-36" x="95.410156"/>
      </g>
     </g>
    </g>
    <g id="ytick_5">
     <g id="line2d_19">
      <path d="M 30.103125 45 
L 197.503125 45 
" clip-path="url(#p13bb953f38)" style="fill: none; stroke-dasharray: 2.96,1.28; stroke-dashoffset: 0; stroke: #b0b0b0; stroke-opacity: 0.7; stroke-width: 0.8"/>
     </g>
     <g id="line2d_20">
      <g>
       <use xlink:href="#md5e2ab15e1" x="30.103125" y="45" style="stroke: #000000; stroke-width: 0.8"/>
      </g>
     </g>
     <g id="text_10">
      <!-- 0.8 -->
      <g transform="translate(7.2 48.799219) scale(0.1 -0.1)">
       <defs>
        <path id="DejaVuSans-38" d="M 2034 2216 
Q 1584 2216 1326 1975 
Q 1069 1734 1069 1313 
Q 1069 891 1326 650 
Q 1584 409 2034 409 
Q 2484 409 2743 651 
Q 3003 894 3003 1313 
Q 3003 1734 2745 1975 
Q 2488 2216 2034 2216 
z
M 1403 2484 
Q 997 2584 770 2862 
Q 544 3141 544 3541 
Q 544 4100 942 4425 
Q 1341 4750 2034 4750 
Q 2731 4750 3128 4425 
Q 3525 4100 3525 3541 
Q 3525 3141 3298 2862 
Q 3072 2584 2669 2484 
Q 3125 2378 3379 2068 
Q 3634 1759 3634 1313 
Q 3634 634 3220 271 
Q 2806 -91 2034 -91 
Q 1263 -91 848 271 
Q 434 634 434 1313 
Q 434 1759 690 2068 
Q 947 2378 1403 2484 
z
M 1172 3481 
Q 1172 3119 1398 2916 
Q 1625 2713 2034 2713 
Q 2441 2713 2670 2916 
Q 2900 3119 2900 3481 
Q 2900 3844 2670 4047 
Q 2441 4250 2034 4250 
Q 1625 4250 1398 4047 
Q 1172 3844 1172 3481 
z
" transform="scale(0.015625)"/>
       </defs>
       <use xlink:href="#DejaVuSans-30"/>
       <use xlink:href="#DejaVuSans-2e" x="63.623047"/>
       <use xlink:href="#DejaVuSans-38" x="95.410156"/>
      </g>
     </g>
    </g>
    <g id="ytick_6">
     <g id="line2d_21">
      <path d="M 30.103125 14.76 
L 197.503125 14.76 
" clip-path="url(#p13bb953f38)" style="fill: none; stroke-dasharray: 2.96,1.28; stroke-dashoffset: 0; stroke: #b0b0b0; stroke-opacity: 0.7; stroke-width: 0.8"/>
     </g>
     <g id="line2d_22">
      <g>
       <use xlink:href="#md5e2ab15e1" x="30.103125" y="14.76" style="stroke: #000000; stroke-width: 0.8"/>
      </g>
     </g>
     <g id="text_11">
      <!-- 1.0 -->
      <g transform="translate(7.2 18.559219) scale(0.1 -0.1)">
       <use xlink:href="#DejaVuSans-31"/>
       <use xlink:href="#DejaVuSans-2e" x="63.623047"/>
       <use xlink:href="#DejaVuSans-30" x="95.410156"/>
      </g>
     </g>
    </g>
   </g>
   <g id="line2d_23">
    <path d="M 37.712216 165.96 
L 39.249406 127.865592 
L 40.786596 119.060282 
L 42.323786 112.993947 
L 43.860976 108.219674 
L 45.398166 104.222046 
L 46.935356 100.75114 
L 48.472546 97.664727 
L 50.009737 94.87332 
L 51.546927 92.316574 
L 53.084117 89.951663 
L 54.621307 87.746983 
L 56.158497 85.678476 
L 57.695687 83.727359 
L 59.232877 81.878656 
L 60.770067 80.120217 
L 62.307257 78.442032 
L 63.844447 76.835746 
L 65.381637 75.294307 
L 66.918827 73.811703 
L 68.456018 72.38276 
L 69.993208 71.002992 
L 71.530398 69.668481 
L 73.067588 68.375783 
L 74.604778 67.121851 
L 76.141968 65.903977 
L 77.679158 64.719743 
L 79.216348 63.566978 
L 80.753538 62.443723 
L 82.290728 61.34821 
L 83.827918 60.278831 
L 85.365108 59.234121 
L 86.902299 58.212742 
L 88.439489 57.213468 
L 89.976679 56.235172 
L 91.513869 55.276815 
L 93.051059 54.337439 
L 94.588249 53.416155 
L 96.125439 52.512139 
L 97.662629 51.624626 
L 99.199819 50.752904 
L 100.737009 49.896306 
L 102.274199 49.05421 
L 103.811389 48.226035 
L 105.34858 47.411235 
L 106.88577 46.609295 
L 108.42296 45.819736 
L 109.96015 45.042102 
L 111.49734 44.275965 
L 113.03453 43.52092 
L 114.57172 42.776587 
L 116.10891 42.042602 
L 117.6461 41.318624 
L 119.18329 40.604327 
L 120.72048 39.899403 
L 122.25767 39.203558 
L 123.794861 38.516514 
L 125.332051 37.838006 
L 126.869241 37.16778 
L 128.406431 36.505594 
L 129.943621 35.851219 
L 131.480811 35.204435 
L 133.018001 34.56503 
L 134.555191 33.932805 
L 136.092381 33.307565 
L 137.629571 32.689128 
L 139.166761 32.077315 
L 140.703951 31.471957 
L 142.241142 30.872891 
L 143.778332 30.279961 
L 145.315522 29.693016 
L 146.852712 29.111911 
L 148.389902 28.536507 
L 149.927092 27.966671 
L 151.464282 27.402273 
L 153.001472 26.84319 
L 154.538662 26.2893 
L 156.075852 25.740488 
L 157.613042 25.196644 
L 159.150232 24.657658 
L 160.687423 24.123427 
L 162.224613 23.593851 
L 163.761803 23.068831 
L 165.298993 22.548275 
L 166.836183 22.03209 
L 168.373373 21.520189 
L 169.910563 21.012487 
L 171.447753 20.5089 
L 172.984943 20.00935 
L 174.522133 19.513757 
L 176.059323 19.022047 
L 177.596513 18.534147 
L 179.133704 18.049985 
L 180.670894 17.569493 
L 182.208084 17.092605 
L 183.745274 16.619255 
L 185.282464 16.14938 
L 186.819654 15.682918 
L 188.356844 15.219811 
L 189.894034 14.76 
" clip-path="url(#p13bb953f38)" style="fill: none; stroke: #1f77b4; stroke-width: 1.5; stroke-linecap: square"/>
   </g>
   <g id="line2d_24">
    <path d="M 37.712216 165.96 
L 39.249406 141.899884 
L 40.786596 134.212487 
L 42.323786 128.622416 
L 43.860976 124.068905 
L 45.398166 120.157866 
L 46.935356 116.692762 
L 48.472546 113.559319 
L 50.009737 110.684369 
L 51.546927 108.017835 
L 53.084117 105.523722 
L 54.621307 103.175161 
L 56.158497 100.95149 
L 57.695687 98.836429 
L 59.232877 96.816887 
L 60.770067 94.882161 
L 62.307257 93.023368 
L 63.844447 91.233046 
L 65.381637 89.504855 
L 66.918827 87.833359 
L 68.456018 86.213853 
L 69.993208 84.642235 
L 71.530398 83.114908 
L 73.067588 81.62869 
L 74.604778 80.180757 
L 76.141968 78.768587 
L 77.679158 77.389917 
L 79.216348 76.042708 
L 80.753538 74.725116 
L 82.290728 73.435465 
L 83.827918 72.172229 
L 85.365108 70.934013 
L 86.902299 69.719537 
L 88.439489 68.527625 
L 89.976679 67.357193 
L 91.513869 66.207238 
L 93.051059 65.076832 
L 94.588249 63.965113 
L 96.125439 62.871279 
L 97.662629 61.794583 
L 99.199819 60.734328 
L 100.737009 59.689859 
L 102.274199 58.660566 
L 103.811389 57.645875 
L 105.34858 56.645245 
L 106.88577 55.65817 
L 108.42296 54.684169 
L 109.96015 53.722792 
L 111.49734 52.77361 
L 113.03453 51.836221 
L 114.57172 50.910241 
L 116.10891 49.995307 
L 117.6461 49.091075 
L 119.18329 48.197217 
L 120.72048 47.313422 
L 122.25767 46.439393 
L 123.794861 45.574848 
L 125.332051 44.719518 
L 126.869241 43.873144 
L 128.406431 43.035481 
L 129.943621 42.206294 
L 131.480811 41.385358 
L 133.018001 40.572458 
L 134.555191 39.767387 
L 136.092381 38.969947 
L 137.629571 38.179949 
L 139.166761 37.39721 
L 140.703951 36.621555 
L 142.241142 35.852816 
L 143.778332 35.09083 
L 145.315522 34.335441 
L 146.852712 33.5865 
L 148.389902 32.843861 
L 149.927092 32.107386 
L 151.464282 31.376939 
L 153.001472 30.652391 
L 154.538662 29.933617 
L 156.075852 29.220495 
L 157.613042 28.512908 
L 159.150232 27.810744 
L 160.687423 27.113893 
L 162.224613 26.422248 
L 163.761803 25.735709 
L 165.298993 25.054174 
L 166.836183 24.377549 
L 168.373373 23.705739 
L 169.910563 23.038655 
L 171.447753 22.376209 
L 172.984943 21.718317 
L 174.522133 21.064894 
L 176.059323 20.415862 
L 177.596513 19.771143 
L 179.133704 19.130661 
L 180.670894 18.494342 
L 182.208084 17.862116 
L 183.745274 17.233912 
L 185.282464 16.609663 
L 186.819654 15.989304 
L 188.356844 15.37277 
L 189.894034 14.76 
" clip-path="url(#p13bb953f38)" style="fill: none; stroke: #ff7f0e; stroke-width: 1.5; stroke-linecap: square"/>
   </g>
   <g id="line2d_25">
    <path d="M 37.712216 165.96 
L 39.249406 150.763828 
L 40.786596 144.469368 
L 42.323786 139.639458 
L 43.860976 135.567656 
L 45.398166 131.980327 
L 46.935356 128.737133 
L 48.472546 125.754709 
L 50.009737 122.978736 
L 51.546927 120.371485 
L 53.084117 117.905486 
L 54.621307 115.56 
L 56.158497 113.318917 
L 57.695687 111.169424 
L 59.232877 109.101132 
L 60.770067 107.10548 
L 62.307257 105.175313 
L 63.844447 103.304579 
L 65.381637 101.488103 
L 66.918827 99.721423 
L 68.456018 98.000654 
L 69.993208 96.322393 
L 71.530398 94.683636 
L 73.067588 93.08172 
L 74.604778 91.514266 
L 76.141968 89.979141 
L 77.679158 88.474424 
L 79.216348 86.998375 
L 80.753538 85.549417 
L 82.290728 84.126111 
L 83.827918 82.727139 
L 85.365108 81.351296 
L 86.902299 79.997471 
L 88.439489 78.664639 
L 89.976679 77.351853 
L 91.513869 76.058235 
L 93.051059 74.782969 
L 94.588249 73.525296 
L 96.125439 72.284506 
L 97.662629 71.059938 
L 99.199819 69.850971 
L 100.737009 68.657024 
L 102.274199 67.477551 
L 103.811389 66.312038 
L 105.34858 65.16 
L 106.88577 64.020981 
L 108.42296 62.894549 
L 109.96015 61.780295 
L 111.49734 60.677834 
L 113.03453 59.586798 
L 114.57172 58.506839 
L 116.10891 57.437627 
L 117.6461 56.378847 
L 119.18329 55.3302 
L 120.72048 54.291399 
L 122.25767 53.262174 
L 123.794861 52.242263 
L 125.332051 51.231419 
L 126.869241 50.229404 
L 128.406431 49.23599 
L 129.943621 48.25096 
L 131.480811 47.274104 
L 133.018001 46.305224 
L 134.555191 45.344126 
L 136.092381 44.390626 
L 137.629571 43.444546 
L 139.166761 42.505717 
L 140.703951 41.573973 
L 142.241142 40.649157 
L 143.778332 39.731117 
L 145.315522 38.819705 
L 146.852712 37.914781 
L 148.389902 37.016207 
L 149.927092 36.123852 
L 151.464282 35.237588 
L 153.001472 34.357292 
L 154.538662 33.482846 
L 156.075852 32.614134 
L 157.613042 31.751045 
L 159.150232 30.893471 
L 160.687423 30.041308 
L 162.224613 29.194454 
L 163.761803 28.352812 
L 165.298993 27.516286 
L 166.836183 26.684785 
L 168.373373 25.858219 
L 169.910563 25.0365 
L 171.447753 24.219546 
L 172.984943 23.407273 
L 174.522133 22.599602 
L 176.059323 21.796457 
L 177.596513 20.99776 
L 179.133704 20.203441 
L 180.670894 19.413427 
L 182.208084 18.627648 
L 183.745274 17.846039 
L 185.282464 17.068533 
L 186.819654 16.295065 
L 188.356844 15.525575 
L 189.894034 14.76 
" clip-path="url(#p13bb953f38)" style="fill: none; stroke: #2ca02c; stroke-width: 1.5; stroke-linecap: square"/>
   </g>
   <g id="patch_3">
    <path d="M 30.103125 173.52 
L 30.103125 7.2 
" style="fill: none; stroke: #000000; stroke-width: 0.8; stroke-linejoin: miter; stroke-linecap: square"/>
   </g>
   <g id="patch_4">
    <path d="M 197.503125 173.52 
L 197.503125 7.2 
" style="fill: none; stroke: #000000; stroke-width: 0.8; stroke-linejoin: miter; stroke-linecap: square"/>
   </g>
   <g id="patch_5">
    <path d="M 30.103125 173.52 
L 197.503125 173.52 
" style="fill: none; stroke: #000000; stroke-width: 0.8; stroke-linejoin: miter; stroke-linecap: square"/>
   </g>
   <g id="patch_6">
    <path d="M 30.103125 7.2 
L 197.503125 7.2 
" style="fill: none; stroke: #000000; stroke-width: 0.8; stroke-linejoin: miter; stroke-linecap: square"/>
   </g>
  </g>
 </g>
 <defs>
  <clipPath id="p13bb953f38">
   <rect x="30.103125" y="7.2" width="167.4" height="166.32"/>
  </clipPath>
 </defs>
</svg>
